# xmcd
#
# Track frame offsets:
# 150
# 15805
# 31055
# 53392
# 74430
# 85560
# 95507
# 106007
# 118175
# 134415
# 146740
# 158870
# 173112
# 185005
# 200467
# 217045
# 230627
# 242485
#
# Disc length: 3442 seconds
#
#
# Revision: 0
# Processed by: cddbd v1.4PL0 Copyright (c) Steve Scherf et al.
# Submitted via: FreeRIP 2.35 
#
DISCID=ed0d7012
DTITLE=Mojo Collins - Diamon Shoals Tales Untold
DYEAR=1999
DGENRE=blues
TTITLE0=House of Light
TTITLE1=Diamond Shoals
TTITLE2=Roanoke
TTITLE3=Nags Head Lament
TTITLE4=Flight of Magic
TTITLE5=Shining Star Over Jockey's Ridge
TTITLE6=Lonesome Raleigh Blues
TTITLE7=Midnight Wind
TTITLE8=Sam and Omies Shuffle
TTITLE9=Kitty Hawk Kids
TTITLE10=Land of Dreams
TTITLE11=Ocracoke
TTITLE12=Freedom Call
TTITLE13=Born Again (Monitor Song)
TTITLE14=Wanchese Harbor Song
TTITLE15=Surfrider Boogie Shorelite Blues
TTITLE16=Silence of Gold
TTITLE17=Surfing Blues
EXTD=Outer Banks songs
EXTT0=
EXTT1=
EXTT2=
EXTT3=
EXTT4=
EXTT5=
EXTT6=
EXTT7=
EXTT8=
EXTT9=
EXTT10=
EXTT11=
EXTT12=
EXTT13=
EXTT14=
EXTT15=
EXTT16=
EXTT17=
PLAYORDER=
